<svg xmlns="http://www.w3.org/2000/svg" width="1499" height="665" viewBox="136 160 1499 665" role="img" aria-labelledby="dfp-t">
<title id="dfp-t">Dima at a laptop, unimpressed; a dancing cactus next to him</title>
<style>.dfp-ink{fill:currentColor}.dfp-fill{fill:var(--dfp-fill,#fff)}.dfp-cactus-ink{fill:var(--dfp-cactus,currentColor)}.dfp-cactus-fill{fill:var(--dfp-cactus-fill,var(--dfp-fill,#fff))}.dfp-pupils{transform-box:fill-box;transform-origin:50% 50%;animation:dfp-blink 5.6s linear infinite}#cactus-body{transform-box:fill-box;transform-origin:50% 100%;animation:dfp-sway 7s ease-in-out infinite}.dfp-wiggles{animation:dfp-wig 7s linear infinite}@keyframes dfp-blink{0%,96.5%,100%{transform:scaleY(1)}97.8%,98.6%{transform:scaleY(.12)}}@keyframes dfp-sway{0%,22%,100%{transform:rotate(0)}3%{transform:rotate(-4deg)}7%{transform:rotate(4deg)}11%{transform:rotate(-4deg)}15%{transform:rotate(4deg)}19%{transform:rotate(-2deg)}}@keyframes dfp-wig{0%,23%,100%{opacity:.35}3%,19%{opacity:1}}@media (prefers-reduced-motion:reduce){.dfp-pupils,#cactus-body,.dfp-wiggles{animation:none;opacity:1}}</style>
<g id="dima">
<path class="dfp-fill" d="M1271 813C1256.4 812.2 1253 811.3 1248.7 807.2C1244.5 803.3 1243.4 800.5 1242.1 791C1241.5 786.3 1240.7 781.3 1240.4 779.8L1239.8 777L1071.6 777L903.4 777L902.3 779.9C900.6 784.4 897.7 785.6 880.5 788.5C866.7 790.8 831.1 797.1 777.5 806.6L763.5 809.1L543.5 808.8L323.5 808.5L319.3 806.3C313.3 803 310.5 798.8 307.3 787.5L304.4 777.5L227.5 777C185.1 776.7 149.9 776.1 149.3 775.7C147.5 774.5 147.7 769.5 149.7 767.9C151 766.7 164.5 766.5 226.3 766.2C296.7 766 301.2 765.8 300.7 764.2C300.5 763.3 293.9 739.3 286.1 711C278.3 682.7 264.6 633.6 255.8 602C239.8 544.8 239.7 544.5 240.8 539.1C242.2 532.5 247.1 526.9 253.7 524.4C257.5 522.9 260.8 522.8 279.3 523.4C301.7 524.1 416.2 528.3 461 530C475.6 530.5 500.6 531.4 516.5 532C532.5 532.5 550.3 533.2 556.1 533.6L566.7 534.2L568.5 524.3C570.6 512.6 575.6 496.7 580 488L583.2 481.8L580.3 478.4C563.2 458.3 555.8 447.5 547.5 430.5C539.3 413.7 533.2 392.8 531.4 375.8C530.8 370.2 530.4 369 528.9 369C528 369 526.2 367.8 525.1 366.4C522.7 363.4 523.6 360.6 527.4 358.8C529.5 357.9 529.8 356.9 530.4 348.1C534 299.7 558.3 256 600.8 221.6C632.2 196.3 666.1 181.5 709.5 174.3C725.2 171.7 766.8 171.7 782.5 174.3C830.6 182.2 868.5 201.1 898 231.6C909.3 243.3 915 250.8 922.3 263.5C948.6 308.8 949.7 372.8 925 422.8C913.9 445.5 899.7 463.3 876.5 483.9L869.5 490.1L875 494.7C883.8 502.1 900.6 519.6 910.1 531.3C960.9 593.4 992.2 677.2 995.3 759.5L995.5 765.5L1116.8 765.8C1231.8 766 1238 765.9 1238 764.3C1238 763.3 1235.7 746.4 1233 726.7C1230.2 707.1 1228 690.7 1228 690.5C1228 690.2 1227.4 690 1226.6 690C1224.3 690 1218.8 684.9 1217.4 681.3C1216.4 679 1216 673.3 1216 661.8C1216 647.3 1216.2 645.1 1218 642.2L1220 639L1318.8 639L1417.7 639L1419.6 641.1C1421.3 643 1421.5 644.9 1421.5 662.5L1421.5 681.9L1418.5 685.1C1416.8 686.8 1414.1 688.8 1412.5 689.5C1409.5 690.8 1409.4 691 1407.7 703.7C1403.6 734.6 1400 763 1400 764.4C1400 765.8 1411 766 1510 766C1618.7 766 1620 766 1622 768C1623.1 769.1 1624 770.7 1624 771.5C1624 772.3 1623.1 773.9 1622 775C1620 777 1618.7 777 1509.1 777C1404.3 777 1398.1 777.1 1397.6 778.8C1397.4 779.7 1396.6 784.8 1395.9 790C1395.3 795.2 1394.1 800.7 1393.4 802.1C1391.5 805.9 1386.5 809.8 1382.1 811C1372.5 813.6 1304.9 814.8 1271 813ZM1460 489.5L1460.1 457.5L1463.9 461.7C1473.3 472.1 1474.2 492.6 1466 510.6C1459.8 524.3 1460 525 1460 489.5ZM1488 455C1486.9 453.9 1486 452.2 1486 451.2C1486 447.9 1481.3 439.5 1477.8 436.4C1475.8 434.6 1472 432.5 1469.4 431.5C1462.9 429.3 1461.8 428.7 1460.6 426.7C1457.3 421.5 1467.5 419.6 1476.2 423.9C1488.9 430 1500 448.9 1494.5 455C1492.2 457.5 1490.5 457.5 1488 455ZM1512.7 440.7C1511.7 440 1510.3 436.6 1509.5 433.2C1506.8 421.6 1501.6 415.4 1491.8 411.8C1484.9 409.3 1483 406.8 1485.6 403.9C1491.4 397.5 1509.3 407.8 1516 421.3C1520.2 429.8 1521 437 1518.1 439.9C1515.7 442.3 1515 442.4 1512.7 440.7ZM1460 310.8L1460 295.5L1462 298.5C1468.6 308.3 1468.5 326 1461.9 326C1460.1 326 1460 325.2 1460 310.8Z"/>
<path class="dfp-ink" fill-rule="evenodd" d="M1271 812C1249 810.7 1245.4 808 1243.1 791C1242.4 786.3 1241.7 781 1241.3 779.2L1240.8 776L1071.9 776L903 776L901.6 779.5C900.8 781.4 899.1 783.4 897.8 784C896.5 784.5 884.7 786.8 871.5 789C858.3 791.3 834.9 795.4 819.5 798.1C804.1 800.9 785.2 804.2 777.5 805.6L763.5 808.1L543.5 807.8L323.5 807.5L319.3 805.3C317 804 314.3 801.8 313.2 800.3C311.2 797.5 310.7 796.1 307 783.2L304.9 776L228.2 776C186 776 150.9 775.6 150.2 775.1C147.9 773.7 149.1 768.7 152 767.9C153.4 767.5 187.7 767.2 228.2 767.1C268.8 767 302 766.6 302 766.1C302 765 280.1 685.3 258.3 607.5C240.8 544.8 240.7 544.5 241.8 539.1C243.2 532.5 247.3 527.8 253.7 525.4C257.5 523.9 260.8 523.8 279.3 524.4C301.2 525.1 413.3 529.2 462 531C539 534 566.4 534.9 567.1 534.5C567.4 534.2 568.5 529.6 569.5 524.3C571.6 512.6 576.6 496.7 581 488L584.2 481.8L581.3 478.4C564.2 458.3 556.8 447.5 548.5 430.5C540.4 413.8 535.2 396.6 532.7 377.7C531.6 369.4 531.2 368.5 529.2 368.2C523.9 367.4 523.2 360.7 528.4 359.4C530.6 358.9 530.8 358.2 531.4 348.7C534.8 300.3 558.8 256.6 600.8 222.6C632.2 197.3 666.1 182.5 709.5 175.3C725.2 172.7 766.8 172.7 782.5 175.3C845.4 185.7 894.3 216.7 921.3 263.5C947.6 308.8 948.7 372.8 924 422.8C917.4 436.3 912.7 443.7 903.6 455C896.7 463.6 880.3 480.1 873.6 485.1C871.1 487 869 489 869 489.7C869 490.3 872.9 494.2 877.8 498.3C922.4 536.1 964.4 608 982.1 677C988.5 701.8 994 738.6 994 756.9C994 760.7 994.3 764.5 994.6 765.4C995.2 766.8 1006.9 767 1117.1 767L1239 767L1239 764.8C1239 761.7 1229.1 690.7 1228.6 690.2C1228.3 690 1226.7 689.1 1224.9 688.2C1218.1 684.7 1217.5 682.9 1217.2 663.2C1217 646.9 1217.1 645.2 1219 642.2L1221 639L1318.8 639L1416.7 639L1418.6 641.1C1420.3 643 1420.5 644.9 1420.5 662.5C1420.5 681.7 1420.5 681.9 1418 684.5C1416.6 686 1413.9 687.9 1412 688.8L1408.6 690.5L1406.8 703C1403.6 726.9 1399 762.9 1399 765L1399 767L1509.4 767C1608.5 767 1620 767.2 1621.4 768.6C1622.3 769.4 1623 770.8 1623 771.5C1623 772.2 1622.3 773.6 1621.4 774.4C1620 775.8 1608.4 776 1508.5 776L1397.2 776L1396.7 778.2C1396.4 779.5 1395.6 784.9 1394.9 790.4C1392.9 805.5 1389.4 809.3 1375.3 811.1C1365.1 812.3 1288.3 813.1 1271 812ZM1349 801.5C1372.5 801 1380.2 800.2 1382.2 798.2C1382.7 797.7 1384.6 785.8 1386.5 771.9C1388.4 757.9 1391.5 735.1 1393.4 721.2C1395.4 707.2 1397 694.5 1397 692.9L1397 690L1318.5 690C1275.3 690 1240 690.2 1240 690.5C1240 693 1254.9 794.6 1255.6 797.1C1256.6 800.5 1261.4 801.2 1290.2 801.9C1305.7 802.3 1319.8 802.5 1321.5 802.3C1323.2 802.2 1335.5 801.8 1349 801.5ZM758 796.4C758 795.5 754.4 780.8 750 763.7C745.6 746.5 736.4 710.5 729.5 683.5C711.8 614 696.4 557.3 694.5 554.4C693.6 553 691.7 551.4 690.2 550.9C687.1 549.6 686.7 549.6 609.5 547C543.5 544.7 383.2 538.8 310.5 536.1C255.3 534 255.5 533.9 253 539.9C251.9 542.7 252 544 253.8 550.3C255 554.3 261.8 578.6 269 604.5C276.2 630.4 283.2 655.3 284.5 660C285.8 664.7 288.5 674.4 290.4 681.5C293.8 694.3 306.8 741.4 311.5 758C312.8 762.7 315.5 772.4 317.5 779.5C319.6 787 322 793.4 323.1 794.5C325 796.5 326.7 796.5 414.8 797C464.1 797.3 561.5 797.6 631.2 797.8C746.6 798 758 797.9 758 796.4ZM784.5 793.5C792.2 792.1 818.1 787.6 842 783.5C865.9 779.3 886.8 775.7 888.3 775.4L891.1 774.8L890.8 767.2L890.5 759.5L879 758.8C872.7 758.5 852.9 757.5 835 756.6C817.1 755.7 792.9 754.5 781.2 753.9C769.5 753.3 759.7 753 759.3 753.3C758.6 754.1 769 796 769.9 796C770.2 796 776.8 794.9 784.5 793.5ZM984.5 766C985.2 764.8 983.4 739.2 981.4 724C972.3 652.9 939.7 579.8 894.2 528.5C889.4 523.1 888.4 523.1 889.9 528.6C890.5 530.8 891.6 537 892.5 542.5C899.9 590.8 895.6 658.3 880.3 729.7C878.3 739.2 876.9 747.3 877.3 747.6C877.6 747.9 882 748.5 887.1 749C895.8 749.7 896.5 749.9 899.2 752.9C901.5 755.5 902 756.9 902 761.5L902 767L942.9 767C968.4 767 984.1 766.6 984.5 766ZM854 745.9C854 743.9 849.1 717.6 846.5 706C840.3 677.7 831.2 648 821.1 622.5C816 609.6 798.3 573 795.4 569.4C793.6 567.1 795 565.3 782.1 587C769.4 608.3 751.8 635.7 742.3 648.9L734.8 659.4L745 699.9C750.6 722.2 755.5 740.9 756 741.4C756.5 741.9 774.8 743.1 796.7 744.1C818.6 745.1 838.1 746.1 840 746.3C848.1 747.1 854 747 854 745.9ZM866.9 743.2C870 731.2 871.3 725.5 874.9 706.5C888.7 633.2 890.3 575.8 880 528.7C875.9 510.3 874.6 507.5 867.3 502C863.7 499.2 860.2 497 859.6 497C858.9 497 854.8 499.3 850.5 502.1C846.1 504.8 837.5 509.8 831.5 513L820.4 518.9L814.8 528.7C811.8 534.1 807.1 542.6 804.4 547.7L799.5 556.9L803.3 563.7C810.2 576 825.7 608.3 830.8 621C843.8 653.5 855.5 695.5 861 729C863.7 745.8 864 747 865 747C865.5 747 866.4 745.3 866.9 743.2ZM479.9 710C470.1 704.8 461 689.1 460.2 676C459.7 666.9 460.9 662.3 465.3 657.3C470.9 650.9 479.6 649.3 489.3 652.7C493.3 654.2 494.6 654.2 498.3 653.1C511.2 649.3 518.5 649.9 524.6 655.2L528 658.2L524 662.6C520.5 666.4 520 667.6 520 671.6C520 677.9 522.5 682.7 527.4 685.8C529.7 687.2 531.7 688.5 531.9 688.7C532.9 689.4 529.5 698 526.3 702.7C523.9 706.3 521.4 708.6 518.3 710.1L513.8 712.3L506.6 710.1L499.5 707.9L493.1 709.9C485.4 712.4 484.5 712.4 479.9 710ZM1410 664C1410.3 656 1410.2 648.7 1409.8 647.8C1409 646.1 1403.7 646 1319.7 646C1270.6 646 1229.9 646.4 1229.2 646.9C1227.4 648 1227.5 675.6 1229.2 677.7C1230.1 678.8 1247 679 1319.9 678.8L1409.5 678.5L1410 664ZM492.5 649C490.4 645.6 495.3 636.3 500.8 633.2C506.9 629.8 509 630.2 509 634.8C509 639.8 506.2 645 502.1 647.7C498.6 650.1 493.6 650.7 492.5 649ZM747.4 624.2C760.4 604.5 784.8 564.8 787.3 559.3C788.1 557.4 787.4 555.7 782.1 547.8C772.6 533.4 774.3 534.7 766.4 536.4C749 540.3 723 542.4 707 541.1C701.2 540.7 696.3 540.5 696.2 540.6C696 540.7 697.7 542.5 700 544.6C702.2 546.6 704.6 549.2 705.2 550.3C706.2 552.2 711.2 570.4 725.1 622.8C728.6 635.5 731.7 646 732.2 646C732.7 646 739.5 636.2 747.4 624.2ZM799.9 536.2C802.7 531.1 805 526.5 805 526C805 525.3 785.9 531.4 784.2 532.6C784 532.7 786 536 788.6 539.9C791.2 543.9 793.7 546.7 794.1 546.3C794.5 545.9 797.2 541.3 799.9 536.2ZM682.8 538.4C681.3 537 671.1 535.3 670.1 536.3C667.9 538.5 669.1 539 676.2 539C680.1 539 683.1 538.7 682.8 538.4ZM658.9 535.6C661.8 532.6 661.3 531.8 655.3 529.5C637.4 522.8 604.7 502.3 595.6 492.1C592.6 488.8 591.2 489.5 588.4 495.8C583.1 507.8 576.6 533 578.5 534.8C579 535.3 628.6 537.5 647.6 537.8C656 538 656.8 537.8 658.9 535.6ZM735.5 532C747.1 530.9 764.3 528.1 766.1 526.9C768.9 525.2 744.2 498.1 727.5 484.7C715.4 474.9 705.4 468.4 693.5 462.5C681.9 456.8 680 456.3 680 458.8C680 462.9 677.7 463.1 670.9 459.6C657 452.2 644.9 451.2 634.8 456.4C628.9 459.5 628.2 459.5 625.8 457.3C624.1 455.8 623.7 455.8 619.8 457.6C615.1 459.7 601.5 472.7 598.7 477.8L596.9 481L600.2 484.1C622.8 505.2 656.4 523.4 684 529.4C699.1 532.7 718.1 533.6 735.5 532ZM790.7 520.4C854.2 498.9 904.5 453.9 922.3 402.5C924.2 397 927 386.6 928.6 379.5C931.3 367.3 931.5 365.1 931.5 344.5C931.5 320.3 930.1 311.3 923.9 292.6C904.9 235.8 849.7 194.9 777.5 184.3C761.4 182 730.1 182 713.5 184.4C650.8 193.4 597.6 226.3 565.6 275.7C550.5 299.1 540.4 331 541.2 352.5L541.5 360.5L574 360.5C603.2 360.5 607 360.3 611.3 358.7C615.2 357.2 616.2 356.2 616.7 353.9C617.1 351.9 618 350.8 619.6 350.4C623 349.5 625 351.6 625 355.8C625 358.6 624.2 360.1 621 363.1L616.9 367L618.6 375.2C622.5 394.4 616 407.6 599.3 414.1C591.5 417.2 573 417.9 561 415.6C556.4 414.7 552.4 414.2 552.2 414.5C551.4 415.2 556.7 426.6 562.6 437.2C568.6 447.9 577.8 460.7 584.7 468.1L589.2 472.9L598.8 463.1C613.8 448 626.4 443 649.3 443C672.7 443 691.9 449.3 715.9 464.7C733.9 476.3 756 496.8 771.4 516.2C774.7 520.5 778.1 524 778.7 524C779.4 524 784.8 522.4 790.7 520.4ZM1460 488.8L1460.1 458.5L1463.4 462.2C1469.9 469.6 1472.3 482.7 1469.5 496.1C1468 503.6 1462 519 1460.6 519C1460.3 519 1460 505.4 1460 488.8ZM640 480.6C638.3 478.9 638.9 476.1 641.2 474.9C643.6 473.6 672.9 473.2 676.7 474.4C679.3 475.2 680.3 477.6 679.1 479.8C678.3 481.3 675.8 481.5 659.5 481.5C649.1 481.5 640.5 481.1 640 480.6ZM729 420C707.3 417.4 687.8 408 680.1 396.4C675.9 390 673 380.2 673 372.5C673 367.2 672.7 366 671.2 365.6C665.8 363.8 661.7 353.1 665.3 350.1C668.2 347.8 671.3 349.1 672.3 353.2C673.7 358.9 676.2 359.5 698.5 359.3C727.1 359.1 788.5 354.6 800.9 351.9C808.3 350.3 811.8 353.1 808.3 357.8C806.6 360.1 806.5 360.7 807.9 367.6C813.1 392.9 795 413 761.9 418.9C753.1 420.4 737.3 421 729 420ZM764 409.5C780.1 405.8 791.8 398.3 796.7 388.6C799.9 382.4 800.8 372.4 798.8 366.5L797.5 362.5L792 362.6C789 362.7 778.6 363.5 769 364.4C748 366.3 715.8 368 696.5 368.3L682.5 368.5L682.6 375.5C682.7 392.3 696.4 404.6 721.1 409.9C732.6 412.4 752.2 412.2 764 409.5ZM595.1 406.5C606.2 402.6 611.9 393.5 610.6 381.9C610.3 378.6 609.4 374.5 608.7 372.8L607.3 369.5L574.4 369.5L541.5 369.5L541.8 375C542.2 380.6 545.5 397.5 547 401.6C549.3 407.5 582.7 411 595.1 406.5Z"/>
<path class="dfp-ink dfp-pupils" d="M560.2 391.4C558.8 390.4 558 388.8 558 387C558 378.7 570.1 377.9 570.8 386.2C571.3 392 565.3 395 560.2 391.4ZM700.8 391.8C698.1 389.6 697.8 386.5 700.1 383.7C704 378.7 712 381.1 712 387.2C712 391.7 704.6 394.7 700.8 391.8Z"/>
</g>
<g id="cactus">
<g id="cactus-body">
<path class="dfp-cactus-fill" d="M1221.9 637.6C1224.2 634.9 1231.9 634 1253 634L1274.1 634L1273.8 597.8C1273.5 558.2 1273.3 556.9 1267.7 554.2C1266.2 553.4 1259.3 552.4 1252.4 552C1238.1 550.9 1226 548.3 1216 544.1C1190.6 533.3 1169.7 509.7 1163.4 485.1C1160.8 474.8 1161.7 459.2 1165.3 451.8C1169.7 442.9 1176.6 435.9 1185 432.1C1191.8 429 1192.7 428.8 1200.8 429.2C1219.8 430.2 1232.4 442.2 1237.5 464C1240.2 475.3 1243.5 481.7 1248.7 485.4C1255.3 490 1260.7 491.9 1267.7 491.9C1278.6 492 1279.4 489.5 1279.4 456.5C1279.4 430.8 1279.7 433.1 1272.5 401C1268.7 384 1268 363.6 1270.9 351.6C1276.8 327.1 1294.9 307.6 1318.6 300.3C1328.1 297.4 1348.1 297.9 1358.5 301.3C1369.6 305 1378.1 310.3 1386 318.6C1397.7 331 1402.4 343.8 1402.4 363.5C1402.4 382.4 1398.2 396.2 1383.9 424C1374.5 442.4 1369 464.3 1369 483.8C1369 491.3 1369.2 492.3 1371.5 494.5C1373.5 496.6 1374.9 497 1380 497C1391.3 497 1399 491.3 1402.4 480.2C1405.2 471.4 1408.7 465.2 1414.1 459.4C1424.9 448 1442.3 445.8 1455.4 454.1L1460 457L1460 489.3L1460 521.7L1457.1 525.6C1453.5 530.6 1444.9 538.6 1438.7 542.9C1426 551.6 1408.7 556.6 1387.5 557.9C1367.7 559.1 1366 560.3 1364 573.7C1363 580.6 1361 616.2 1361 627.6L1361 634L1383 634C1405.1 634 1413.9 634.9 1416.1 637.6C1417.1 638.8 1404.1 639 1319 639C1235.3 639 1220.9 638.8 1221.9 637.6Z"/>
<path class="dfp-cactus-ink" fill-rule="evenodd" d="M1222.4 638.1C1223.8 635.9 1233.1 635 1253.4 635L1275 635L1275 600.8C1275 566 1274.4 559.2 1271.2 555.7C1268.5 552.7 1265.3 551.9 1252.3 551C1231.4 549.5 1216.4 544.9 1201.7 535.4C1183.8 524 1169.3 504.4 1164.4 485.1C1161.8 474.8 1162.7 459.1 1166.3 451.8C1170.6 443 1176.7 436.9 1185 433.1C1191.8 430 1192.7 429.8 1200.8 430.2C1219.7 431.2 1231.5 442.5 1236.6 464.3C1237.6 468.6 1239.6 474.5 1241 477.3C1245.6 486.5 1256.9 493 1268.2 493C1279.2 493 1280.4 489.4 1280.4 456.5C1280.4 430.8 1280.7 433.1 1273.5 401C1269.7 384 1269 363.6 1271.9 351.6C1277.7 327.3 1295.1 308.5 1318.6 301.3C1328.1 298.4 1348.1 298.9 1358.5 302.3C1379.7 309.3 1394 324.2 1399.7 345.1C1400.9 349.5 1401.4 355.2 1401.4 363.5C1401.4 382.4 1397.2 396.2 1382.9 424C1373.5 442.4 1368 464.3 1368 483.8C1368 491.7 1368.2 492.3 1370.9 495.1C1373.5 497.7 1374.5 498 1379.9 498C1391.4 498 1399.9 491.6 1403.4 480.3C1409.2 461.8 1419.9 451.6 1435.1 450.3C1442.2 449.6 1449.6 451.3 1455.4 455.1L1460 458L1459.9 469.2C1459.9 480 1459.8 480.3 1458.6 476.3C1455.5 466.6 1448.2 461 1438.5 461C1427.5 461 1421.3 465.7 1416.6 477.6C1409.1 496.5 1404.6 502.1 1394.2 506C1378.5 511.9 1363.8 508.3 1358.4 497.3C1355.1 490.5 1356.7 465.1 1361.6 448.2C1363 443.2 1363 442.8 1361.1 440.4C1358.7 437.3 1359.3 435.2 1363.1 434.3C1365.6 433.6 1367 431.4 1374.9 415C1386.5 391.1 1389.1 382.5 1389.8 365.8C1390.2 354 1390 352.3 1387.6 344.8C1380.3 321.6 1360 308.7 1333.5 310.3C1314.3 311.4 1293.5 324 1294.2 334C1294.5 337.1 1294.2 337.5 1291.5 338C1285.4 339.1 1280.7 355.6 1281.2 374C1281.4 380.5 1281.8 386.1 1282.2 386.5C1282.6 386.9 1284.2 386.4 1285.8 385.4C1292.4 381.5 1294.5 387.3 1288 391.6C1285.8 393.1 1284 394.8 1284 395.5C1284 396.2 1285.1 401.6 1286.5 407.6C1291.2 427.6 1292.2 438.4 1291.7 462C1291.1 485.9 1290 491.6 1284.9 497.4C1275.6 508.1 1251.2 505 1237.6 491.4C1231.9 485.7 1228.4 478.8 1226 468.5C1223.5 457.7 1220 451 1214.2 445.9C1203.5 436.5 1186.9 439.2 1179 451.6C1166.9 470.8 1177.9 504.2 1202.4 522.6C1217.4 534 1232 538.7 1258.2 540.9C1275 542.3 1280.2 545.4 1284 556.3C1285.9 561.6 1286 565 1286.3 598.3L1286.5 634.5L1317.8 634.8L1349 635L1349 632.3C1349.1 617.9 1351.1 576.8 1352 571.4C1353.5 561.4 1357.2 554.4 1362.8 550.9C1367.7 547.8 1369.7 547.4 1388 546C1394.9 545.5 1404.1 544.1 1408.5 543C1434.5 536.4 1454.3 517 1459 493.5C1459.5 490.7 1459.8 494.2 1459.9 504.8L1460 520.1L1457.1 524.3C1453.6 529.4 1445.2 537.4 1438.7 541.9C1426 550.6 1408.7 555.7 1387.4 556.9C1367.4 558.1 1365.1 559.7 1363 573.7C1362 580.8 1360 616.3 1360 628.1L1360 635L1382.5 635C1403.6 635 1414.3 636 1415.6 638.1C1415.9 638.6 1377.8 639 1319 639C1263.6 639 1222.1 638.6 1222.4 638.1ZM1331.5 620.1C1330.6 617.1 1332 611.2 1333.8 610.5C1336.3 609.6 1337.1 611.4 1336.8 616.6C1336.5 620.7 1336.2 621.5 1334.3 621.8C1332.9 622 1332 621.5 1331.5 620.1ZM1300.5 619.4C1298.3 617.2 1298.8 607.2 1301.2 605.7C1304.2 603.8 1306 606.5 1306 612.9C1306 620.3 1303.9 622.8 1300.5 619.4ZM1330.6 580.4C1329.6 579.5 1329 577.1 1329 574.6C1329 564.7 1335.3 564.4 1335.8 574.3C1336 579 1335.8 580 1334.1 580.9C1332.6 581.7 1331.8 581.6 1330.6 580.4ZM1296.5 568C1295.7 566.6 1296.8 565 1298.6 565C1299.4 565 1300 565.9 1300 567C1300 569.1 1297.6 569.8 1296.5 568ZM1380.4 537.5C1379.3 534.8 1380.8 533.3 1385.1 532.6C1389.8 531.9 1392.5 533.4 1391.5 536.2C1390.4 539.1 1381.4 540.1 1380.4 537.5ZM1251 529.7C1248.3 528.8 1247.5 528 1247.5 526C1247.5 523.7 1247.8 523.5 1251.8 523.7C1256.9 523.9 1259.2 525.5 1258.8 528.4C1258.4 530.9 1255.8 531.4 1251 529.7ZM1346.6 527.4C1345.8 525.4 1351.4 520 1354.1 520C1357.7 520 1357.6 523.1 1353.9 526.1C1350.1 529.3 1347.5 529.8 1346.6 527.4ZM1289 523.5C1286.4 519.3 1287 516 1290.5 516C1292.4 516 1293.3 517 1294.8 520.2C1297 525.2 1296.7 527 1293.5 527C1291.9 527 1290.5 525.9 1289 523.5ZM1424.7 521.3C1423 519.7 1424.3 517.2 1428.6 513.8C1433.9 509.5 1434.3 509.4 1436 511.5C1439.1 515.2 1428.1 524.8 1424.7 521.3ZM1395.4 519.5C1394.6 517.6 1396.6 515.9 1398.7 516.7C1400.6 517.4 1399.9 520.4 1397.7 520.8C1396.8 521 1395.7 520.4 1395.4 519.5ZM1207.8 507.5C1204.1 505 1202.3 501.9 1203.5 500C1204.7 498 1207.6 499.1 1211.8 503.1C1215.4 506.4 1216 507.3 1215 508.5C1213.3 510.6 1212 510.4 1207.8 507.5ZM1329.4 506.5C1328.7 504.7 1329.7 503 1331.5 503C1333.3 503 1334.1 505.5 1332.7 506.9C1331.2 508.4 1330 508.3 1329.4 506.5ZM1436.9 485.8C1436.5 481.5 1440 477 1443.7 477C1446.7 477 1446.8 480.1 1443.9 484.1C1441.8 487.1 1437.1 488.2 1436.9 485.8ZM1338.4 472.6C1337.3 469.8 1338.5 462.7 1340.2 461.6C1343.7 459.5 1345.5 465.5 1343.4 472.2C1342.8 474.3 1339.2 474.6 1338.4 472.6ZM1431.6 473.1C1430.9 472 1433.4 469.8 1434.3 470.7C1434.7 471 1435 471.9 1435 472.7C1435 474.2 1432.4 474.5 1431.6 473.1ZM1187.8 467.6C1185.4 462.5 1185.9 459.7 1189.2 460.2C1190.8 460.4 1192.2 461.9 1193.6 465C1196.1 470.1 1195.8 472 1192.4 472C1190.5 472 1189.5 471 1187.8 467.6ZM1209 459.4C1207.9 458.2 1208 457.6 1209.3 456.2C1210.9 454.7 1211.1 454.7 1212.6 456.2C1214.5 458 1213.8 461 1211.7 461C1210.9 461 1209.7 460.3 1209 459.4ZM1304.4 457.7C1304.1 456.9 1304 453.8 1304.2 450.9C1304.5 445.9 1304.7 445.5 1307 445.5C1309.4 445.5 1309.5 445.7 1309.5 452C1309.5 458 1309.3 458.5 1307.2 458.8C1306 459 1304.8 458.5 1304.4 457.7ZM1339 432.1C1339 430.6 1339.6 430 1341.1 430C1343.6 430 1343.3 433.3 1340.7 433.8C1339.5 434 1339 433.5 1339 432.1ZM1326.1 408.9C1316.1 406.9 1306.6 398 1307.2 391C1307.5 387.9 1307.8 387.5 1310.4 387.5C1312.8 387.5 1313.8 388.3 1315.9 391.8C1323.1 404 1341.8 404.1 1348 392.1C1350.2 387.7 1352.3 386.5 1355.2 388.1C1356.8 389 1357.1 389.8 1356.6 392.3C1354.4 403.5 1339.5 411.6 1326.1 408.9ZM1373.2 390.8C1371.7 389.3 1371.6 385.4 1373 384.5C1376.3 382.5 1380.1 387.7 1377.3 390.5C1375.5 392.3 1374.8 392.4 1373.2 390.8ZM1350.9 368.1C1346.1 363.2 1347.5 353.9 1353.5 351.2C1361.1 347.7 1369 352.4 1369 360.5C1369 369.9 1357.5 374.7 1350.9 368.1ZM1305.4 369C1298.4 366.2 1297.1 356.9 1303 351.8C1309.8 345.6 1320 350.4 1320 359.7C1320 366.6 1312 371.7 1305.4 369ZM1324.2 329.8C1321.3 326.9 1323.9 319.5 1327.6 320.1C1329 320.4 1329.6 321.5 1329.8 324.3C1330.3 329.8 1327.2 332.8 1324.2 329.8ZM1352 325C1352 323.5 1352.5 323 1353.8 323.2C1354.7 323.4 1355.5 324.2 1355.5 325C1355.5 325.8 1354.7 326.6 1353.8 326.8C1352.5 327 1352 326.5 1352 325Z"/>
</g>
<path class="dfp-ink dfp-wiggles" d="M1189 603.1C1176.3 599.2 1165.3 585.6 1172 582C1174.1 580.9 1175.6 582 1180.8 588.9C1184 593.1 1188 595 1196.4 596.4C1203.8 597.7 1205.6 599.4 1203 602.5C1201.7 604.1 1193.4 604.4 1189 603.1ZM1204.2 581C1193.4 578.8 1183.7 572.1 1180 564.5C1176.1 556.5 1181.7 552.4 1186.4 559.8C1191.9 568.3 1199.8 572.8 1211.3 573.9C1216.4 574.3 1218.6 575 1219.4 576.2C1221.8 580.1 1213.2 582.8 1204.2 581ZM1488.6 454.4C1487.7 453.6 1487 452.1 1487 451.2C1487 447.8 1482.2 439.4 1478.3 435.9C1476.1 433.9 1472.1 431.5 1469.4 430.6C1462.2 428 1461.5 427.5 1461.5 424.9C1461.5 422.7 1461.9 422.5 1466.5 422.5C1478.8 422.6 1493 435.9 1494.7 449C1495.5 455 1492.2 458 1488.6 454.4ZM1513.2 440.1C1512.5 439.7 1511.2 436.5 1510.4 433.1C1509.7 429.7 1508.3 425.5 1507.4 423.9C1504.8 418.7 1498.1 413.2 1492 410.9C1485.9 408.7 1484.1 406.7 1486.1 404.4C1489 400.8 1499.5 404.1 1507.4 411.1C1515.6 418.4 1521.7 435.2 1517.5 439.3C1515.6 441.2 1515.1 441.3 1513.2 440.1ZM1429.7 338.7C1428.7 337.9 1428 335 1427.7 330C1426.8 315.7 1419.5 303.7 1408.9 298.9C1404.6 296.9 1403.9 296.2 1404.2 294.1C1404.9 288.3 1415.2 291.2 1423.5 299.4C1431.5 307.4 1436 318.4 1436 329.8C1436 337.5 1433.2 341.5 1429.7 338.7ZM1458.4 323.8C1458 323.2 1457.5 319.9 1457.4 316.6C1456.9 305.5 1451.1 296.1 1441.8 291.4C1437.9 289.4 1436.9 288.5 1437.2 286.7C1437.4 285 1438.3 284.4 1440.7 284.2C1447.4 283.5 1457.7 291.7 1462.5 301.4C1465.7 307.9 1467 319.2 1465.1 322.8C1463.8 325.2 1459.6 325.8 1458.4 323.8Z"/>
</g>
</svg>
